<svg xmlns="http://www.w3.org/2000/svg" xmlns:xlink="http://www.w3.org/1999/xlink" version="1.1" x="0px" y="0px" viewBox="0 0 96 96" enable-background="new 0 0 96 96" xml:space="preserve"><g><path d="M87.016,78.689l-23.82-22.024c-1.385-1.386-3.429-1.695-5.12-0.951l-5.406-5.407c8.785-10.01,8.43-25.295-1.12-34.845   c-9.949-9.949-26.138-9.949-36.087,0c-9.949,9.949-9.949,26.138,0,36.087c9.55,9.55,24.834,9.905,34.845,1.12l5.407,5.406   c-0.744,1.691-0.435,3.735,0.951,5.12l22.024,23.82c1.803,1.804,5.625,0.906,7.428-0.898   C87.922,84.314,88.819,80.492,87.016,78.689z M48.854,48.854c-8.464,8.463-22.236,8.462-30.698,0   c-8.464-8.463-8.464-22.234,0-30.698c8.463-8.464,22.234-8.464,30.698,0C57.316,26.619,57.317,40.391,48.854,48.854z"></path><rect x="24.865" y="30.946" width="17.221" height="4.991"></rect></g></svg>